<svg width="1281" height="1282" xmlns="http://www.w3.org/2000/svg" xmlns:xlink="http://www.w3.org/1999/xlink" overflow="hidden"><defs><clipPath id="clip0"><rect x="2316" y="155" width="1281" height="1282"/></clipPath></defs><g clip-path="url(#clip0)" transform="translate(-2316 -155)"><path d="M2316 796C2316 441.985 2602.76 155 2956.5 155 3310.24 155 3597 441.985 3597 796 3597 1150.01 3310.24 1437 2956.5 1437 2602.76 1437 2316 1150.01 2316 796Z" fill="#F2F2F2" fill-rule="evenodd"/><path d="M3217 715.6 2955 786 2955 466Z" fill="#7C4B3B" fill-rule="evenodd"/><path d="M2693 715.6 2955 786 2955 466Z" fill="#B58B80" fill-rule="evenodd"/><path d="M3338 830.151 2955 933 2955 785.37 3217.05 715Z" fill="#A27242" fill-rule="evenodd"/><path d="M2571 830.151 2955 933 2955 785.37 2692.26 715Z" fill="#C3986D" fill-rule="evenodd"/><path d="M2955 933.063 2571.2 830 2450 945.391 2955 1081Z" fill="#A19574" fill-rule="evenodd"/><path d="M2955 933.063 3338.04 830 3459 945.391 2955 1081Z" fill="#7C7154" fill-rule="evenodd"/></g></svg>